<?xml version="1.0" encoding="UTF-8"?>
<!-- Generated by Pixelmator Pro 3.6.5 -->
<svg width="400" height="400" viewBox="0 0 400 400" xmlns="http://www.w3.org/2000/svg">
    <path id="Rectngulo-redondeado" fill="#85438f" fill-rule="evenodd" stroke="none" d="M 0 363 C -0 385.0914 17.908609 403 40 403 L 360 403 C 382.0914 403 400 385.0914 400 363 L 400 40 C 400 17.9086 382.0914 0 360 0 L 40 0 C 17.908609 0 0 17.9086 0 40 Z"/>
    <g id="Agrupar">
        <path id="Trazado" fill="#ffffff" stroke="none" d="M 279.278259 209.042435 C 284.456299 207.562851 289.593994 205.918381 294.820862 204.638382 C 305.595795 201.999741 316.409241 199.516571 327.223816 197.043396 C 336.769623 194.860382 346.456665 193.393112 356.242493 193.704971 C 364.964966 193.982956 370.026672 196.318512 372.639709 205.119583 C 373.875793 209.2827 371.875214 210.86882 367.499939 210.480362 C 363.236847 210.101868 358.897919 210.580185 354.592194 210.677826 C 353.645081 210.69931 352.696472 210.677612 351.750366 210.717621 C 347.357422 210.903381 342.965088 211.103836 338.094696 211.320221 C 339.770691 215.373581 341.282654 219.073502 342.82785 222.759399 C 348.862854 237.154831 209.530502 255.085175 204.244385 262.466858 C 201.459 266.356384 93.161285 339.553589 89.373482 332.584106 C 84.042809 339.649109 78.898613 346.556183 73.646088 353.379913 C 71.81601 355.757385 68.521683 355.444855 66.774971 352.923004 C 62.646271 346.962158 63.156033 340.889862 67.14431 334.106262 C 71.326729 326.992401 77.496895 321.998108 83.508728 316.74823 C 85.001488 315.444702 89.764198 312.150269 95.206436 308.750488 C 104.085831 303.203491 117.470123 293.672241 117.427414 293.360901 C 117.274063 292.243286 97.030762 305.969696 96.915718 305.330597 C 96.670959 303.971039 96.244202 301.489868 96.345955 299.630737 C 96.451851 297.695709 97.098099 295.244781 97.446037 293.974579 C 99.232193 287.453644 101.551605 280.980225 102.387535 274.328003 C 103.082443 268.797974 104.691803 263.358978 103.999519 257.506622 C 103.493233 253.226685 105.327278 248.718628 105.577858 244.281738 C 105.724205 241.691467 105.509132 238.935638 103.198303 236.783554 C 99.947868 233.756393 99.582237 229.85701 99.926262 225.502274 C 100.296692 220.813614 102.273857 216.733109 104.518829 213.070053 C 107.016281 208.995102 110.990669 205.831177 114.286774 202.238281 C 115.580887 200.827652 116.631775 199.160385 118.058014 197.912674 C 119.93483 196.270798 122.072594 194.927338 124.09816 193.45549 C 123.970947 193.212967 123.843681 192.970352 123.716469 192.727753 C 121.112572 194.212936 118.482735 195.65509 115.918236 197.205429 C 114.954842 197.787964 114.146851 198.626022 113.261528 199.3396 C 112.163338 200.224716 111.162971 201.314178 109.927109 201.922302 C 108.681107 202.535522 107.19841 202.667374 105.045753 203.202393 C 104.955292 195.710968 104.864433 188.820786 104.791443 181.930466 C 104.740364 177.111191 104.60244 172.289154 104.708435 167.47287 C 104.807976 162.952209 105.29882 158.439713 105.383133 153.91922 C 105.436852 151.039337 104.88681 148.14949 104.919083 145.267563 C 104.983932 139.473419 105.395271 133.681976 105.410965 127.888733 C 105.424194 122.998718 104.917923 118.10675 104.948212 113.21756 C 104.970734 109.580597 105.61277 105.951111 105.740829 102.309937 C 105.861389 98.880493 105.613159 95.439758 105.629822 92.004547 C 105.655647 86.683228 105.784897 81.362518 105.839638 76.041229 C 105.885422 71.594757 105.42141 67.081573 106.041908 62.720154 C 106.640755 58.51062 104.81958 52.989807 107.17157 48.837311 C 108.438385 46.6008 107.574532 47.442444 111.15995 48.837311 C 114.427261 50.108368 117.141785 52.800171 119.888107 54.991516 C 120.984474 55.866302 122.053459 56.775299 123.144821 57.656525 C 128.146255 61.694855 133.154083 65.725189 138.154144 69.765259 C 143.226151 73.863342 148.240067 78.035797 153.376892 82.050812 C 157.342682 85.150543 161.494904 88.010468 165.497055 91.065125 C 168.622543 93.450623 171.652145 95.962463 174.711349 98.434235 C 180.101212 102.789093 185.490112 107.145294 190.862045 111.522247 C 194.321381 114.340881 197.735764 117.214722 201.19664 120.031494 C 203.806244 122.155518 206.453781 124.233185 209.091446 126.322571 C 211.388184 128.141815 213.712906 129.926086 215.992645 131.766296 C 219.327209 134.457977 222.640457 137.176422 225.948059 139.901306 C 228.530319 142.028534 231.081482 144.193512 233.663376 146.321075 C 235.146088 147.542831 236.670029 148.714325 238.161789 149.925171 C 240.453125 151.785049 242.790695 153.594025 244.995483 155.552185 C 246.307053 156.717102 253.352524 161.229706 254.741791 162.264343 C 255.372559 162.734085 256.072784 163.749802 255.311584 163.974304 C 254.260345 164.28421 251.440628 163.735352 250.981491 164.01416 C 256.743713 166.225632 269.130585 175.777969 268.986023 176.513962 C 268.914886 176.87648 266.479767 176.835403 265.567383 177.083984 C 260.859772 178.366257 249.417633 180.001724 246.764999 180.50386 C 242.990189 181.218384 232.279663 184.184311 228.532425 185.063721 C 225.710388 185.725983 207.416168 191.358612 207.072342 192.450104 C 208.48616 191.884644 242.69313 184.812897 246.195282 184.493698 C 247.99118 184.330063 282.610657 180.122528 286.079102 180.50386 C 288.217102 180.738922 293.789215 181.116653 295.765228 182.213791 C 295.943909 182.313065 290.583984 184.765442 290.067474 185.063721 C 286.513824 187.115814 226.685562 215.159836 222.834747 215.842941 C 219.324402 216.46553 196.243317 227.63887 194.638062 228.49762 C 190.443985 230.741241 186.213135 232.927979 182.127472 235.357056 C 180.406631 236.380127 179.014145 237.955872 177.500961 239.830383 C 179.486237 239.245834 181.582153 238.89975 183.438583 238.037643 C 186.921844 236.419937 190.826492 234.335602 195.485825 232.372498 C 205.386856 228.200806 217.137573 223.830185 224.544067 220.402832 C 230.245239 217.764572 263.381348 205.23204 268.416229 203.303284 C 271.946167 201.950989 303.955566 193.415237 307.160522 192.473495 C 309.364899 191.825912 312.555664 191.298645 315.137329 191.333542 C 313.729645 191.956192 311.913055 192.757477 309.974609 193.614212 C 306.374695 195.205383 302.354614 196.988022 299.753571 198.173431 C 295.671112 200.033783 283.087799 206.095978 278.812042 208.610214 C 278.221039 208.978745 277.91272 209.077393 277.604309 209.175919 C 277.664734 209.340347 277.725159 209.504822 277.785583 209.669205 C 278.283142 209.460297 278.780701 209.251328 279.278259 209.042435"/>
        <path id="Estrella-Grande" fill="#ffffff" stroke="none" d="M 250.656387 108.714264 C 244.790436 104.902924 238.298431 104.944336 231.746902 105.288239 C 231.559204 104.971924 231.37149 104.655609 231.183792 104.339294 C 232.622726 102.397797 234.209595 100.546631 235.463913 98.492249 C 237.09407 95.821991 238.957703 93.13269 239.799332 90.187988 C 240.636841 87.258057 240.337555 84.002045 240.527649 80.888458 C 240.567993 80.226837 240.407166 79.501678 240.628342 78.914978 C 240.914078 78.156891 241.354904 77.181641 241.986237 76.919037 C 242.465164 76.719879 243.499771 77.333282 244.023468 77.851532 C 247.33403 81.128174 251.166534 83.635803 255.626587 84.831909 C 258.697296 85.655365 261.970306 85.714325 265.147217 86.156372 C 266.345673 86.323059 267.528015 86.606354 269.28894 86.94693 C 266.898346 89.988007 264.848694 92.36441 263.095612 94.942688 C 262.42453 95.929596 262.699768 97.53595 262.081055 98.587433 C 259.857941 102.365662 259.781738 106.45108 259.862793 110.626617 C 259.882019 111.616547 259.395081 112.616302 259.14093 113.611572 C 257.856659 113.199463 256.451019 112.993561 255.316833 112.326111 C 253.68956 111.368622 252.260239 110.074493 250.656387 108.714264 Z"/>
        <path id="Estrella-Pequea" fill="#ffffff" stroke="none" d="M 31.396212 237.364319 C 31.817173 234.272354 32.064491 231.374008 32.441875 228.492584 C 32.540466 227.73996 33.023178 226.44397 33.365055 226.432251 C 34.26329 226.401306 35.607361 226.664398 36.017971 227.299408 C 37.869873 230.163376 41.261875 229.782684 43.6614 231.295181 C 45.749222 232.611252 47.834057 232.009933 49.908932 232.346054 C 52.649807 232.789978 52.910603 233.872925 51.120975 236.032654 C 47.886265 239.936386 46.558582 244.54744 46.180775 249.515717 C 46.127304 250.218781 45.923668 251.287186 45.473057 251.49295 C 44.831898 251.785736 43.770447 251.673203 43.111603 251.318771 C 40.708851 250.026276 38.541035 248.150101 36.01432 247.275345 C 33.406036 246.372452 30.489979 246.311737 27.694614 246.01297 C 25.71591 245.801529 26.134975 245.164764 27.017668 243.96521 C 28.534256 241.904251 29.863308 239.705231 31.396212 237.364319 Z"/>
    </g>
</svg>
